<svg xmlns="http://www.w3.org/2000/svg" viewBox="0 0 64 64">
  <rect width="64" height="64" rx="16" fill="#2563eb" />
  <path
    fill="#ffffff"
    d="M25 16h14v6h-4v3.1c3.8 1 6.9 3.5 8.7 6.9H50v5h-4.8c.1.7.1 1.3.1 2v3H50v5h-4.8c-.9 6.2-6.4 11-13.2 11s-12.3-4.8-13.2-11H14v-5h4.7v-3c0-.7 0-1.3.1-2H14v-5h6.3c1.8-3.4 4.9-5.9 8.7-6.9V22h-4v-6Zm7 14c-4.8 0-8.6 3.8-8.6 8.5v4.9c0 4.7 3.8 8.6 8.6 8.6s8.6-3.9 8.6-8.6v-4.9c0-4.7-3.8-8.5-8.6-8.5Zm-3.8 8.4a2.4 2.4 0 1 1 0-4.8 2.4 2.4 0 0 1 0 4.8Zm7.6 0a2.4 2.4 0 1 1 0-4.8 2.4 2.4 0 0 1 0 4.8Z"
  />
</svg>
